<?xml version="1.0" encoding="UTF-8"?>
<svg id="Layer_1" xmlns="http://www.w3.org/2000/svg" version="1.1" viewBox="0 0 373.9 140.2">
  <!-- Generator: Adobe Illustrator 29.1.0, SVG Export Plug-In . SVG Version: 2.1.0 Build 142)  -->
  <defs>
    <style>
      .st0 {
        fill: #eb6658;
      }

      .st1 {
        fill: #fff;
      }

      .st2 {
        fill: #262626;
      }

      .st3 {
        fill: #461816;
      }
    </style>
  </defs>
  <g id="Layer_8">
    <path class="st1" d="M60,111.1c-1.3,0-2.7,0-4.1-.4-6.3-1.1-9.7-4.6-11.4-7.4-2.9-4.7-3.3-10.5-1.3-17.3h0c2.1-7.1,5-15.2,8.3-22.8,3-7,6-13.1,8.2-16.8,6.5-10.4,14.3-12.6,19.7-12.6s2.2,0,3.3.3c3.8.6,7.3,2.7,9.7,5.8,5.1-3,10.3-4.6,15.4-4.6s1.9,0,2.9.2c9,1,13.7,5.6,16,9.3,3.2,5.1,3.9,11.6,1.8,17.9-.1.3-.2.7-.4,1l4,.5-2.6,10.7c-1.3,5.6-4.3,10.2-8.6,13.5-4.2,3.2-9.6,4.9-15.4,4.9s-2.6,0-3.9-.2h0c-7.7-1-11.8-4.9-13.9-8.1-.3-.4-.6-.9-.8-1.4-2.8,4.3-5.4,8.6-7.1,12-4.8,13.6-14.5,15.6-19.8,15.6h0Z"/>
    <path class="st1" d="M60,106.3c-1.1,0-2.2,0-3.3-.3-4.6-.8-7-3.3-8.3-5.3-2.2-3.5-2.4-8-.8-13.5h0c4.5-15,11.8-31.7,16-38.5,5.3-8.6,11.4-10.4,15.7-10.3.8,0,1.7,0,2.6.2,3,.5,5.8,2.4,7.6,5.1.6.9,1,1.8,1.3,2.8.6-.4,1.1-.8,1.7-1.2,5.1-3.6,10.3-5.4,15.3-5.4s1.6,0,2.3,0c7.2.8,10.8,4.3,12.6,7.2,2.5,3.9,2.9,8.9,1.3,13.8-.6,1.8-1.3,3.5-2,4.9-.2.5-.5,1-.7,1.6l5,.6-1.3,5.5c-1.1,4.3-3.3,8-6.6,10.6-3.4,2.8-7.9,4.2-12.9,4.2s-2.2,0-3.3-.2h0c-5.9-.8-9-3.7-10.5-6-2-3-2.6-6.9-1.8-11.1-.6.8-1.2,1.6-1.8,2.4-4.8,6.5-9.8,14.5-12.5,20-3.6,10.5-10.4,12.7-15.5,12.7h0Z"/>
    <path class="st1" d="M145.4,111c-10.9,0-19.3-3.2-25.2-9.4-5.6-5.9-8.2-13.9-7.7-23.7.6-10.3,4.8-21.1,11.8-29.5,7.7-9.3,17.5-14.5,27.6-14.5s18.2,4.5,21.7,8.2c4.6,4.9,6.8,11.3,6.4,18.6v.3c4.4.2,8.2,2.6,10.4,6.5,2.5,4.5,2.3,10-.6,14.8-5.9,9.7-12.2,16.6-19.4,21.3-7.4,4.8-15.5,7.2-24.9,7.2h0v.2Z"/>
    <path class="st1" d="M145.4,106.3c-9.5,0-16.9-2.7-21.8-7.9-4.7-4.9-6.8-11.7-6.4-20.2.5-9.2,4.5-19.2,10.6-26.7,6.8-8.3,15.3-12.8,24-12.8s13.1,1.2,18.3,6.8c3.7,3.9,5.5,9.2,5.1,15.2-.1,2.6-.7,5.1-1.6,7.4,1.7-1.4,3.7-2.1,5.7-2.1s5.4,1.5,6.9,4.1c1.7,3,1.5,6.7-.5,10-10.9,17.9-23.7,26.3-40.2,26.3h0Z"/>
    <path class="st1" d="M307.3,111.3c-6.3,0-12-2.4-16-6.6-4.3,2.7-8.6,4.1-12.9,4-6.8,0-12.5-2.3-16.5-6.5-3.9-4.2-6-10.1-6-17.1,0-15.9,12-32.7,15.6-37.5,6.6-8.6,15.7-13.3,25.5-13.3s10.7,1.2,14.4,3.7c1.6-.4,3.2-.7,4.9-.7s1.1,0,1.6,0c6,.5,9.3,3.3,11,5.6,2.7,3.6,3.5,8.2,2.4,14-.3,1.5-.6,3-1.1,4.6h.8c4.6,0,8.8,2.4,11.1,6.5,2.5,4.4,2.4,9.8-.2,14.5-5.5,10-9.9,16.2-14.6,20.6-5.9,5.6-12.5,8.3-20,8.2h0Z"/>
    <path class="st1" d="M307.3,106.6c-6.5,0-12-3.1-15-8.5-4.8,4-9.3,5.9-13.9,5.9s-10.3-1.8-13.4-5.5c-2.9-3.3-4.3-7.8-4.3-13.4,0-14.5,11.2-30.2,14.7-34.7,5.8-7.5,13.3-11.5,21.8-11.5s10.5,1.3,13.5,4.3c1.8-.8,3.8-1.3,5.7-1.3s.8,0,1.2,0c3.5.3,6,1.5,7.6,3.8,2.5,3.3,2.1,7.4,1.5,10.2-.7,3.5-1.8,6.8-3.4,11.2-.6,1.6-1.2,3.4-1.9,5.5-.1.4-.3.8-.4,1.2.2-.4.4-.7.6-1,.6-1,1.1-1.8,1.5-2.3,1.9-2.8,4.8-4.5,7.8-4.5s5.5,1.6,7,4.1c1.7,2.9,1.6,6.6-.3,9.8-5.2,9.4-9.2,15.1-13.3,19.1-5.1,4.9-10.7,7.3-17.2,7.3h0l.2.3Z"/>
    <path class="st1" d="M331,109.8c-4.3,0-8.1-1.6-11-4.7-4-4.2-5.7-10.8-5.2-20,.9-15.4,5.3-31.4,11.6-41.6,3-4.8,6.3-8.4,10-10.7-2-5.8-2.6-12.6-1.5-17.4v-.2c1.2-4.5,3.6-8.3,7-11C345.4,1.4,349.6,0,354.1,0s3.1.2,4.6.5c7.1,1.4,10.8,5.4,12.7,8.6,2.6,4.4,3.2,9.9,1.5,15-1.6,5.1-6,11.3-11.2,15.6,1,2.8,1.1,6.1.4,9.9-.7,3.5-1.7,6.5-3.1,10.4h0c-.7,2-1.4,4.2-2.3,6.8h0c-2.4,7.4-5.1,18-4.3,26.6l.4,4.9-3.7,3.3c-2.2,1.9-9.9,8.3-18.2,8.2h.1Z"/>
    <path class="st1" d="M331,105.1c-3,0-5.6-1.1-7.6-3.2-3.1-3.2-4.3-8.7-3.9-16.5.8-14.5,5.1-29.9,10.9-39.4,3.6-5.9,7.7-9.5,12.2-10.9-2.8-4.9-4.3-13.5-3.1-18.6h0c.8-3.4,2.6-6.3,5-8.3,2.6-2.2,6-3.4,9.7-3.4s2.5,0,3.7.4c5.4,1.1,8.2,4,9.5,6.4,1.9,3.3,2.3,7.4,1.1,11.2-1,3.3-3.7,7.4-7.1,10.9-2,2-3.9,3.6-5.7,4.7.2.2.3.4.5.7,1.7,2.5,2.2,5.6,1.4,9.8-.6,3.2-1.6,6.1-2.9,9.7-.7,2-1.5,4.2-2.3,6.9h0c-2.5,7.8-5.4,19.1-4.5,28.5l.2,2.5-1.9,1.7c-.4.3-2.4,2.1-5.2,3.8-3.6,2.2-7,3.3-9.9,3.3h0v-.2Z"/>
    <path class="st1" d="M60,111.1c-1.3,0-2.7,0-4.1-.4-6.3-1.1-9.7-4.6-11.4-7.4-2.9-4.7-3.3-10.5-1.3-17.3h0c2.1-7.1,5-15.2,8.3-22.8,3-7,6-13.1,8.2-16.8,6.5-10.4,14.3-12.6,19.7-12.6s2.2,0,3.3.3c3.8.6,7.3,2.7,9.7,5.8,5.1-3,10.3-4.6,15.4-4.6s1.9,0,2.9.2c9,1,13.7,5.6,16,9.3,3.2,5.1,3.9,11.6,1.8,17.9-.1.3-.2.7-.4,1l4,.5-2.6,10.7c-1.3,5.6-4.3,10.2-8.6,13.5-4.2,3.2-9.6,4.9-15.4,4.9s-2.6,0-3.9-.2h0c-7.7-1-11.8-4.9-13.9-8.1-.3-.4-.6-.9-.8-1.4-2.8,4.3-5.4,8.6-7.1,12-4.8,13.6-14.5,15.6-19.8,15.6h0Z"/>
    <path class="st1" d="M60,106.3c-1.1,0-2.2,0-3.3-.3-4.6-.8-7-3.3-8.3-5.3-2.2-3.5-2.4-8-.8-13.5h0c4.5-15,11.8-31.7,16-38.5,5.3-8.6,11.4-10.4,15.7-10.3.8,0,1.7,0,2.6.2,3,.5,5.8,2.4,7.6,5.1.6.9,1,1.8,1.3,2.8.6-.4,1.1-.8,1.7-1.2,5.1-3.6,10.3-5.4,15.3-5.4s1.6,0,2.3,0c7.2.8,10.8,4.3,12.6,7.2,2.5,3.9,2.9,8.9,1.3,13.8-.6,1.8-1.3,3.5-2,4.9-.2.5-.5,1-.7,1.6l5,.6-1.3,5.5c-1.1,4.3-3.3,8-6.6,10.6-3.4,2.8-7.9,4.2-12.9,4.2s-2.2,0-3.3-.2h0c-5.9-.8-9-3.7-10.5-6-2-3-2.6-6.9-1.8-11.1-.6.8-1.2,1.6-1.8,2.4-4.8,6.5-9.8,14.5-12.5,20-3.6,10.5-10.4,12.7-15.5,12.7h0Z"/>
    <path class="st1" d="M151.8,34c11.6,0,18.2,4.5,21.7,8.2,4.6,4.9,6.8,11.3,6.4,18.6v.3c4.4.2,8.2,2.6,10.4,6.5,2.5,4.5,2.3,10-.6,14.8-5.9,9.7-12.2,16.6-19.4,21.3-7.4,4.8-15.5,7.2-24.9,7.2s-19.3-3.2-25.2-9.4c-5.6-5.9-8.2-13.9-7.7-23.7.6-10.3,4.8-21.1,11.8-29.5"/>
    <path class="st1" d="M145.4,106.3c-9.5,0-16.9-2.7-21.8-7.9-4.7-4.9-6.8-11.7-6.4-20.2.5-9.2,4.5-19.2,10.6-26.7,6.8-8.3,15.3-12.8,24-12.8s13.1,1.2,18.3,6.8c3.7,3.9,5.5,9.2,5.1,15.2-.1,2.6-.7,5.1-1.6,7.4,1.7-1.4,3.7-2.1,5.7-2.1s5.4,1.5,6.9,4.1c1.7,3,1.5,6.7-.5,10-10.9,17.9-23.7,26.3-40.2,26.3h0Z"/>
    <path class="st1" d="M307.3,111.3c-6.3,0-12-2.4-16-6.6-4.3,2.7-8.6,4.1-12.9,4-6.8,0-12.5-2.3-16.5-6.5-3.9-4.2-6-10.1-6-17.1,0-15.9,12-32.7,15.6-37.5,6.6-8.6,15.7-13.3,25.5-13.3s10.7,1.2,14.4,3.7c1.6-.4,3.2-.7,4.9-.7s1.1,0,1.6,0c6,.5,9.3,3.3,11,5.6,2.7,3.6,3.5,8.2,2.4,14-.3,1.5-.6,3-1.1,4.6h.8c4.6,0,8.8,2.4,11.1,6.5,2.5,4.4,2.4,9.8-.2,14.5-5.5,10-9.9,16.2-14.6,20.6-5.9,5.6-12.5,8.3-20,8.2h0Z"/>
    <path class="st1" d="M307.3,106.6c-6.5,0-12-3.1-15-8.5-4.8,4-9.3,5.9-13.9,5.9s-10.3-1.8-13.4-5.5c-2.9-3.3-4.3-7.8-4.3-13.4,0-14.5,11.2-30.2,14.7-34.7,5.8-7.5,13.3-11.5,21.8-11.5s10.5,1.3,13.5,4.3c1.8-.8,3.8-1.3,5.7-1.3s.8,0,1.2,0c3.5.3,6,1.5,7.6,3.8,2.5,3.3,2.1,7.4,1.5,10.2-.7,3.5-1.8,6.8-3.4,11.2-.6,1.6-1.2,3.4-1.9,5.5-.1.4-.3.8-.4,1.2.2-.4.4-.7.6-1,.6-1,1.1-1.8,1.5-2.3,1.9-2.8,4.8-4.5,7.8-4.5s5.5,1.6,7,4.1c1.7,2.9,1.6,6.6-.3,9.8-5.2,9.4-9.2,15.1-13.3,19.1-5.1,4.9-10.7,7.3-17.2,7.3h0l.2.3Z"/>
    <path class="st1" d="M331,109.8c-4.3,0-8.1-1.6-11-4.7-4-4.2-5.7-10.8-5.2-20,.9-15.4,5.3-31.4,11.6-41.6,3-4.8,6.3-8.4,10-10.7-2-5.8-2.6-12.6-1.5-17.4v-.2c1.2-4.5,3.6-8.3,7-11C345.4,1.4,349.6,0,354.1,0s3.1.2,4.6.5c7.1,1.4,10.8,5.4,12.7,8.6,2.6,4.4,3.2,9.9,1.5,15-1.6,5.1-6,11.3-11.2,15.6,1,2.8,1.1,6.1.4,9.9-.7,3.5-1.7,6.5-3.1,10.4h0c-.7,2-1.4,4.2-2.3,6.8h0c-2.4,7.4-5.1,18-4.3,26.6l.4,4.9-3.7,3.3c-2.2,1.9-9.9,8.3-18.2,8.2h.1Z"/>
    <path class="st1" d="M229.3,111c-1.3,0-2.4,0-3.3-.3-4.4-.3-9.7-1.9-13-3.5-2.4-1.2-4.4-2.6-6-4.2-5.8,6.2-9.5,7.7-13.2,7.7s-10.8-1.9-14.4-3.6c-6.2-3.1-10.6-9.2-12.8-17.9-2.3-9.1-1.9-28.5,4.8-41.3,5.9-11.1,13.7-13.4,19.2-13.4s2.2,0,3.3.3c5.8,1,9.1,4.1,10.8,6.5.9,1.4,1.9,3.3,2.4,5.8,5.6-8.4,12.4-10.2,17.3-10.2s2.3,0,3.4.3c5.8,1,9.1,4.1,10.7,6.5,1.3,1.8,2.6,4.6,2.7,8.3,2.8-4.7,5.5-8.5,8.4-11.2,3.8-3.5,8.4-5.3,13.4-5.3,9,0,15.9,5.9,17.2,7.1l5.2,4.7-3.1,6.3c-23.2,47.5-41.6,57.5-53.1,57.5h0Z"/>
    <path class="st1" d="M331,105.1c-3,0-5.6-1.1-7.6-3.2-3.1-3.2-4.3-8.7-3.9-16.5.8-14.5,5.1-29.9,10.9-39.4,3.6-5.9,7.7-9.5,12.2-10.9-2.8-4.9-4.3-13.5-3.1-18.6h0c.8-3.4,2.6-6.3,5-8.3,2.6-2.2,6-3.4,9.7-3.4s2.5,0,3.7.4c5.4,1.1,8.2,4,9.5,6.4,1.9,3.3,2.3,7.4,1.1,11.2-1,3.3-3.7,7.4-7.1,10.9-2,2-3.9,3.6-5.7,4.7.2.2.3.4.5.7,1.7,2.5,2.2,5.6,1.4,9.8-.6,3.2-1.6,6.1-2.9,9.7-.7,2-1.5,4.2-2.3,6.9h0c-2.5,7.8-5.4,19.1-4.5,28.5l.2,2.5-1.9,1.7c-.4.3-2.4,2.1-5.2,3.8-3.6,2.2-7,3.3-9.9,3.3h0v-.2Z"/>
    <g>
      <path class="st1" d="M31.2,113.4c-9.3,0-17.3-3.1-23-9-5.4-5.6-8.2-13.2-8.2-21.9s2-14.9,5.9-22.2c4.2-8.4,9.9-15.7,16.4-20.9,6.9-5.5,14.2-8.4,21.2-8.4s10.7,2.6,13.9,4.8c3.9,2.7,7.3,6.4,9.3,10.2v.3c0,0,.3.3.3.3,3.1,6.8,1.6,13.7-.7,19.4,3.1,1.2,5.6,3.8,6.9,7.3.9,2.5,1.2,5.6.9,8.7-.4,3.5-1.7,7-3.8,10.2-7.9,12.4-23.6,21.1-38.3,21.3h-.8ZM35.6,78.4c-1.1,3.1-1.7,6-1.7,8.3s0,.6,0,.8c2.2-.7,4.6-2.2,7.1-4.3-2.1-1.4-4-3-5.4-4.9h0Z"/>
      <path class="st1" d="M31.2,108.7c-8,0-14.8-2.6-19.6-7.6-4.6-4.7-7-11.2-7-18.7s1.9-13.4,5.3-20c4-8,9.3-14.8,15.4-19.6,5.9-4.6,12.2-7.2,17.9-7.2s7.7,1.5,11.4,4.1c3.2,2.3,6,5.4,7.6,8.4h0v.3c3.1,7,.3,13.9-3.2,21h0v.2c-.2.3-.4.7-.5,1,1-.5,2.1-.8,3.2-.8,3,0,5.5,1.9,6.6,5,1.2,3.3,1.2,8.9-2.5,14.7-3.3,5.2-8.5,10-14.6,13.4-6.4,3.6-13.2,5.6-19.8,5.7h-.4.2ZM31.2,92.7c3.9,0,8.2-1.9,12.7-5.8,2.1-1.8,4-3.8,5.7-5.7h-.3c-1.5,0-3.1-.4-5.1-1.4h-.2l-.2-.2c-4.9-3-7.7-7.7-7.7-12.9-1,1.6-2,3.3-2.9,5.2-2.5,5.1-4.1,10.9-4.1,14.9s1,5.9,2,6h.1Z"/>
    </g>
    <path class="st3" d="M60,108c-1.2,0-2.4,0-3.6-.3-5.2-.9-8-3.8-9.4-6-2.4-3.9-2.8-8.9-1-14.9,4.5-15.2,11.9-32,16.2-38.9,5.7-9.2,12.5-11.1,17.1-11.1s1.9,0,2.8.2c3.5.6,6.7,2.7,8.7,5.9.2.3.4.7.6,1.1,5.4-3.8,10.9-5.7,16.3-5.7s1.7,0,2.5.2c7.8.9,11.9,4.8,13.8,7.9,2.8,4.3,3.3,9.9,1.4,15.3-.5,1.6-1.2,3.1-1.8,4.5l4.6.5-1.8,7.4c-1.2,4.9-3.8,8.9-7.5,11.8-3.7,2.8-8.4,4.3-13.6,4.3s-2.3,0-3.5-.2c-6.6-.8-10-4.1-11.7-6.7-1.3-1.9-2.1-4.2-2.3-6.6-4.3,6-8.4,12.7-10.9,17.6-1.8,5-4.4,8.7-7.8,11-2.7,1.8-5.8,2.7-9.2,2.7h.1Z"/>
    <path class="st3" d="M60,103.3c-.9,0-1.8,0-2.8-.3-2.8-.5-4.9-1.8-6.2-3.9-1.7-2.7-1.8-6.4-.5-11.1,4.4-14.8,11.5-31.1,15.7-37.7,2.5-4.1,6.8-8.9,13.1-8.9s1.4,0,2.1.2c2.2.3,4.2,1.7,5.6,3.8,1.3,2,1.8,4.5,1.6,7.2,6.6-6.4,13.1-9.6,19.3-9.6s1.3,0,2,0c6,.7,9,3.5,10.4,5.8,2,3.1,2.3,7.2,1,11.3-.5,1.6-1.3,3.2-1.9,4.6-.8,1.7-1.9,4.2-1.6,4.9,0,.2.8.6,2.6.8l2.3.3-.5,2.2c-1.9,7.8-8.1,12.5-16.5,12.5h0c-1,0-2,0-3-.2-4.8-.6-7.2-2.8-8.4-4.6-1.8-2.7-2.1-6.3-1-10.2.9-3.1,2.5-5.9,3.7-8.2.7-1.2,1.4-2.4,1.6-3v-.7c-.2,0-3.3.6-12.2,12.4-5.2,7-10.7,15.6-13.7,21.6-1,2.9-2.3,5.2-3.8,7-2.3,2.6-5.3,3.9-8.8,3.9h0v-.2Z"/>
    <polygon class="st2" points="46.5 57 46.5 41.7 17.2 56.9 17.1 98.2 39.6 96.1 56.9 79.5 46.5 57"/>
    <path class="st3" d="M145.4,108c-10,0-17.8-2.9-23.1-8.4-5-5.3-7.3-12.5-6.9-21.4.5-9.7,4.6-19.8,11.1-27.7,7.1-8.6,16.1-13.4,25.2-13.3,10.5,0,16.4,4,19.5,7.3,4,4.2,6,9.9,5.6,16.4,0,1.3-.2,2.7-.5,3.9.9-.3,1.9-.4,2.9-.4,3.5,0,6.6,1.9,8.3,5,2,3.5,1.8,7.9-.6,11.7-5.6,9.2-11.7,15.9-18.5,20.4-6.9,4.5-14.5,6.7-23.2,6.7h0l.2-.2Z"/>
    <path class="st3" d="M145.4,103.3c-8.7,0-15.3-2.4-19.7-7-4.1-4.3-6-10.3-5.6-18,.4-8.4,4.1-17.6,9.7-24.6,6.2-7.7,14-12,21.9-12s12.6,2,16.1,5.8c3.1,3.3,4.6,7.8,4.3,12.9-.6,12.2-11.4,20.7-26.2,20.7h-.9c1.6,2.5,4.5,3.7,8.7,3.7h.4c7,0,15.8-7.5,19.8-12.8,1.5-2,3.4-3.1,5.3-3.1s3.3,1,4.2,2.6c1.1,2,.9,4.6-.5,6.9-10.3,16.9-22.2,24.8-37.6,24.8h0ZM153.3,58.3c-2.7,0-6.9,5.2-8.8,11.5,2.1-.3,4.1-1.1,5.7-2.3,2.4-1.7,3.9-4.1,4.5-7h0c.1-.7,0-1.2-.3-1.6-.3-.4-.8-.6-1.2-.6h.1Z"/>
    <path class="st2" d="M274.3,59.4s-19.3,49.9-46.9,48.8h0c-4.1,0-9.9-1.7-13.2-3.3h0c-2.9-1.5-5.3-3.4-7.1-5.7-2.8,3.3-5.2,5.6-7.3,7-2.6,1.7-4.5,2-5.8,2-4.1,0-9.9-1.7-13.2-3.3h0c-6.9-3.4-9.9-10.7-11.3-16.2-1.2-4.6-1.5-11.4-.9-18.4.5-5.8,1.9-14.1,5.5-21.1,4.2-8,9.9-12,16.9-12s1.9,0,2.9.2c3.9.7,7.1,2.5,9.1,5.4,1.5,2.1,3,5.7,1.9,11.1-.5,2.4-1.1,5-1.7,7.6,1.1-2.3,2.3-4.8,3.6-7.4.5-1.4,1.2-2.7,1.9-3.9,4.2-7.1,9.6-10.7,16.1-10.7s2,0,3,.3c3.9.7,7,2.5,9,5.4,1.5,2.1,3,5.7,1.9,11.1-.9,4.4-2.3,8.8-3.7,13.1-.4,1.1-.7,2.2-1.1,3.3,1.8-3.6,4.3-7.7,7.1-13.1,0,0,14.2-38.1,39-13.4l-5.4,13.2h-.3Z"/>
    <path class="st3" d="M307.3,108.3c-6.6,0-12-2.7-15.4-7.7-4.5,3.4-9,5.1-13.5,5.1s-10.9-1.9-14.3-5.6c-3.4-3.6-5.1-8.8-5.1-15,0-15,11.5-31.1,15-35.7,6-7.8,14.2-12.2,23.1-12.1,6.1,0,10.5,1.3,13.8,4,1.8-.7,3.6-1,5.4-1s.9,0,1.4,0c3.9.3,6.9,1.8,8.8,4.4,2.2,2.9,2.8,6.7,1.8,11.6-.6,3.2-1.5,6.1-2.8,9.7,1.7-1,3.5-1.6,5.4-1.6,3.5,0,6.7,1.9,8.5,5,2,3.4,1.9,7.7-.3,11.5-5.4,9.7-9.6,15.7-14,19.9-5.3,5-11.2,7.4-17.9,7.4h.1Z"/>
    <path class="st3" d="M307.3,103.6c-4.3,0-8-1.5-10.6-4.4-1.5-1.7-2.6-3.7-3.3-6.1-4,4-9.2,8-15,8s-8.6-1.5-11.2-4.4c-2.4-2.7-3.6-6.6-3.5-11.4,0-5.1,1.6-11,4.7-17.6,2.4-5.1,5.7-10.5,9.4-15.3,5.2-6.8,11.9-10.3,19.4-10.3s10.7,2,12.8,5.1c1.5-1,3.6-2.1,6.4-2.1h1c2.6.2,4.4,1.1,5.5,2.6,1.3,1.8,1.6,4.3,1,7.9-.6,3.3-1.7,6.5-3.2,10.8-.6,1.6-1.2,3.5-1.9,5.5-2.2,6.7-2.6,11.6-2.2,13.1.5-.3,1.5-1.2,3.3-3.6,1.7-2.2,3.3-4.9,4.5-6.8.6-1,1.1-1.7,1.4-2.2,1.9-2.8,4.1-3.2,5.3-3.2,1.8,0,3.5,1,4.4,2.6,1.1,2,1,4.5-.3,6.8-9,16.2-16,24.9-27.9,24.9h0ZM299.5,56.8c-2.3.2-5.2,3.8-8.6,10.6-3.6,7.3-4.7,11.9-4.7,13.7,1.8-1.1,5.9-4.8,9.8-12.2h0c3.7-7,3.9-11.1,3.5-12.1h0Z"/>
    <path class="st3" d="M331,106.8c-3.5,0-6.5-1.3-8.8-3.8-3.4-3.6-4.8-9.4-4.4-17.8.9-15,5.1-30.4,11.1-40.2,3.4-5.4,7.1-9.1,11.2-10.9-2.5-5.4-3.6-13.1-2.4-18.1h0c2-8,8.4-13.1,16.3-13.1s2.7.2,4.1.4c6,1.2,9.1,4.5,10.7,7.2,2.2,3.7,2.6,8.3,1.2,12.6-1.4,4.7-6.4,11.6-12.1,15.5,1.6,2.7,2,6.1,1.2,10.3-.6,3.3-1.7,6.2-3,10h0c-.7,2-1.5,4.3-2.3,6.9-2.5,7.7-5.3,18.7-4.5,27.8l.3,3.4-2.5,2.2c-2,1.8-9,7.5-16.2,7.5h0Z"/>
    <path class="st3" d="M331,102.1c-2.1,0-4-.8-5.4-2.3-2.5-2.6-3.5-7.3-3.1-14.3.8-14,4.9-28.9,10.5-38,4.1-6.7,8.7-10,13.6-10s1.1,0,1.7,0c2.6.4,4.3,1.4,5.4,3,1.2,1.8,1.5,4.1.9,7.5-.6,2.9-1.5,5.8-2.8,9.3-.7,2-1.5,4.3-2.4,7-2.6,8.1-5.6,19.7-4.6,29.7v1l-.7.7s-1.8,1.6-4.2,3.1c-3.4,2.1-6.4,3.2-8.9,3.2h0ZM350,37h-.8c-1.4-.2-2.6-1.1-3.6-2.7-2.7-4-4.3-12.5-3.2-17.1h0c1.5-5.8,6-9.4,11.7-9.4s2.1,0,3.1.3c4.3.8,6.5,3.2,7.5,4.9,1.5,2.5,1.8,5.7.8,8.8-.9,2.9-3.3,6.5-6.4,9.8-2,2-5.8,5.5-9.2,5.5h.1Z"/>
    <path class="st2" d="M60,108c-1.2,0-2.4,0-3.6-.3-5.2-.9-8-3.8-9.4-6-2.4-3.9-2.8-8.9-1-14.9,4.5-15.2,11.9-32,16.2-38.9,5.7-9.2,12.5-11.1,17.1-11.1s1.9,0,2.8.2c3.5.6,6.7,2.7,8.7,5.9.2.3.4.7.6,1.1,5.4-3.8,10.9-5.7,16.3-5.7s1.7,0,2.5.2c7.8.9,11.9,4.8,13.8,7.9,2.8,4.3,3.3,9.9,1.4,15.3-.5,1.6-1.2,3.1-1.8,4.5l4.6.5-1.8,7.4c-1.2,4.9-3.8,8.9-7.5,11.8-3.7,2.8-8.4,4.3-13.6,4.3s-2.3,0-3.5-.2c-6.6-.8-10-4.1-11.7-6.7-1.3-1.9-2.1-4.2-2.3-6.6-4.3,6-8.4,12.7-10.9,17.6-1.8,5-4.4,8.7-7.8,11-2.7,1.8-5.8,2.7-9.2,2.7h.1Z"/>
    <path class="st2" d="M145.4,108c-10,0-17.8-2.9-23.1-8.4-5-5.3-7.3-12.5-6.9-21.4.5-9.7,4.6-19.8,11.1-27.7,7.1-8.6,16.1-13.4,25.2-13.3,10.5,0,16.4,4,19.5,7.3,4,4.2,6,9.9,5.6,16.4,0,1.3-.2,2.7-.5,3.9.9-.3,1.9-.4,2.9-.4,3.5,0,6.6,1.9,8.3,5,2,3.5,1.8,7.9-.6,11.7-5.6,9.2-11.7,15.9-18.5,20.4-6.9,4.5-14.5,6.7-23.2,6.7h0l.2-.2Z"/>
    <path class="st2" d="M307.3,108.3c-6.6,0-12-2.7-15.4-7.7-4.5,3.4-9,5.1-13.5,5.1s-10.9-1.9-14.3-5.6c-3.4-3.6-5.1-8.8-5.1-15,0-15,11.5-31.1,15-35.7,6-7.8,14.2-12.2,23.1-12.1,6.1,0,10.5,1.3,13.8,4,1.8-.7,3.6-1,5.4-1s.9,0,1.4,0c3.9.3,6.9,1.8,8.8,4.4,2.2,2.9,2.8,6.7,1.8,11.6-.6,3.2-1.5,6.1-2.8,9.7,1.7-1,3.5-1.6,5.4-1.6,3.5,0,6.7,1.9,8.5,5,2,3.4,1.9,7.7-.3,11.5-5.4,9.7-9.6,15.7-14,19.9-5.3,5-11.2,7.4-17.9,7.4h.1Z"/>
    <path class="st2" d="M331,106.8c-3.5,0-6.5-1.3-8.8-3.8-3.4-3.6-4.8-9.4-4.4-17.8.9-15,5.1-30.4,11.1-40.2,3.4-5.4,7.1-9.1,11.2-10.9-2.5-5.4-3.6-13.1-2.4-18.1h0c2-8,8.4-13.1,16.3-13.1s2.7.2,4.1.4c6,1.2,9.1,4.5,10.7,7.2,2.2,3.7,2.6,8.3,1.2,12.6-1.4,4.7-6.4,11.6-12.1,15.5,1.6,2.7,2,6.1,1.2,10.3-.6,3.3-1.7,6.2-3,10h0c-.7,2-1.5,4.3-2.3,6.9-2.5,7.7-5.3,18.7-4.5,27.8l.3,3.4-2.5,2.2c-2,1.8-9,7.5-16.2,7.5h0Z"/>
    <g>
      <path class="st2" d="M31.2,110.4c-8.5,0-15.7-2.8-20.8-8.1-4.9-5.1-7.4-11.9-7.4-19.8s1.9-14,5.5-20.8c4-8.1,9.4-14.9,15.6-19.9,6.3-5.1,13-7.8,19.2-7.8s9.4,2.3,12.1,4.3c3.5,2.5,6.5,5.8,8.3,9.1v.2l.2.2c3.3,7.3.4,14.9-2.2,20.4h0c3.7,0,6.8,2.3,8.2,6.1.8,2.1,1,4.7.7,7.2-.4,3.1-1.5,6.1-3.4,9-7.3,11.5-22.1,19.7-35.8,19.9h-.4.1ZM30.9,86.7c0,2.3.5,3.8.8,4.3,4.3-.2,9.5-3.2,14.7-8.6-.9-.3-1.8-.7-2.8-1.2h-.3c0,0-.2-.3-.2-.3-3.8-2.3-6.5-5.6-7.7-9.4h0c-.2.3-.3.6-.5,1"/>
      <path class="st2" d="M31.2,105.7c-7.2,0-13.2-2.3-17.4-6.7-4-4.2-6.1-9.9-6.1-16.6s1.7-12.5,5-18.7c3.8-7.7,8.9-14.1,14.6-18.6,5.3-4.2,11-6.5,16.1-6.5s6.5,1.3,9.7,3.6c2.8,2,5.3,4.7,6.7,7.3h0c2.6,5.9,0,11.9-3.1,18.5h0c-1,1.8-1.8,3.8-2.7,6-.4,1-1.5,3.9-4.5,3.9s-2.2-.3-3.8-1.1h0c-4-2.5-6.3-6.3-6.3-10.5s1.1-6.2,3.7-12.1h0c.4-.8.7-1.4.9-2-3.3,2.9-8.9,9.4-13.3,18.1-2.8,5.6-4.4,11.7-4.4,16.3s1.9,8.9,4.9,9h.2c4.6,0,9.6-2.2,14.7-6.5,5-4.3,9.1-9.6,11.6-13.4,1.1-1.8,2.8-2.9,4.4-2.9s3.1,1.1,3.8,3c.9,2.5.9,7.2-2.2,12.1-3.1,4.8-7.9,9.2-13.5,12.4-5.9,3.4-12.3,5.2-18.4,5.3h-.6Z"/>
    </g>
    <path class="st1" d="M57.9,50.6c2.3,5.1-.2,10.7-3.1,16.7-1.2,2.3-2.2,4.6-2.8,6.3-1.1,2.9-2.5,3.2-5.5,1.7-2.8-1.7-5.3-4.6-5.3-8.7s.8-5,3.5-11.3c1.5-3.1,2.5-4.6,1.3-5.6-1.8-1.5-11.1,7.6-17.3,20-2.5,4.4-3.3,8.3-3.3,12.9,0,6.7,2.9,9.2,7,9.3,11.5.2,20.5-5.7,26.7-14.8,1.4-2.3,3.7-2.9,4.6-.3.8,2,.8,6-2,10.3-5.8,9.2-18.3,16.7-30.2,16.8-14.1,0-21.9-8.9-21.9-21.2s1.6-11.6,4.8-17.8c7.8-15.8,20-24,28.8-24s12.1,5.2,14.5,9.8h.2Z"/>
    <path class="st1" d="M175.6,73.2c1.2-1.6,2.5-2.3,3.7-2.3,2.4,0,4.1,3.1,2,6.4-9.8,16.1-20.9,23.9-35.9,23.8s-24-7.8-23.2-22.8c.9-16.3,14-34.7,29.6-34.7s18.9,7.4,18.4,16.6c-.6,12.2-12.5,20.2-28.1,18.6,1.1,4.6,4.7,8.1,12.1,8,7.7,0,16.9-7.7,21.4-13.7h0ZM156.8,60.9c.6-2.6-1.3-4.6-3.5-4.6-4.6,0-10,7.9-11.3,15.7,6.7,0,13.3-3.9,14.8-11.1h0Z"/>
    <path class="st1" d="M256,47.6c7.9-7.3,18,1.8,18,1.8-28.8,59.1-46.6,52-46.6,52-2.9,0-7.7-1.4-10.3-2.7-5.8-2.9-7.4-7.3-8.1-13-6.4,8.7-12.4,15.6-15.1,15.6s-7.7-1.4-10.3-2.7c-4.4-2.2-6.7-7.5-7.8-11.8-1.9-7.5-1.4-24.4,4-34.7,4-7.5,8.5-9,12.7-8.3s6.5,3.6,5.5,8.6c-1.7,8.6-5.4,20.7-6.2,27.7-.6,6,.9,9.2,2.3,9.2,2.4,0,9.5-13.8,18.6-32.9h0c.4-1,.8-2.1,1.4-3,3.9-6.7,8.2-8,12.3-7.3,4.2.7,6.5,3.6,5.5,8.6-1.7,8.6-6.3,18.4-7,25.4-.6,6,1.1,9.9,2.3,9.2,9.9-6.2,21.1-34.7,29-42h0l-.2.3Z"/>
    <path class="st1" d="M256,47.6c7.9-7.3,18,1.8,18,1.8-28.8,59.1-46.6,52-46.6,52-2.9,0-7.7-1.4-10.3-2.7-5.8-2.9-7.4-7.3-8.1-13-6.4,8.7-12.4,15.6-15.1,15.6s-7.7-1.4-10.3-2.7c-4.4-2.2-6.7-7.5-7.8-11.8-1.9-7.5-1.4-24.4,4-34.7,4-7.5,8.5-9,12.7-8.3s6.5,3.6,5.5,8.6c-1.7,8.6-5.4,20.7-6.2,27.7-.6,6,.9,9.2,2.3,9.2,2.4,0,9.5-13.8,18.6-32.9h0c.4-1,.8-2.1,1.4-3,3.9-6.7,8.2-8,12.3-7.3,4.2.7,6.5,3.6,5.5,8.6-1.7,8.6-6.3,18.4-7,25.4-.6,6,1.1,9.9,2.3,9.2,9.9-6.2,21.1-34.7,29-42h0l-.2.3Z"/>
    <path class="st1" d="M52.4,88.7c4.3-14.6,11.5-30.8,15.4-37.2,3.8-6.2,8.4-8.6,13.1-7.8,3.7.6,6.7,5.1,5,11-.5,1.8-1.2,3.8-1.9,5.8,7.5-9.3,16.2-16.4,25.5-15.4,9.2,1,11.9,8,9.7,14.4-2.2,6.6-7.3,12.1.8,13-1.7,7-7.6,11.9-17.3,10.8-7.4-.9-9.3-6.5-7.7-12.3,1.3-4.8,4.7-9.1,5.3-11.3.4-1.5,0-3-1.7-3.2-5.5-.6-22,23.3-27.9,35.3-1.6,4.7-4.9,10.9-13.2,9.4-6-1.1-7-6.2-5.1-12.4h0Z"/>
    <path class="st0" d="M331,71.3c2.5,0,4.3,3.1,2.4,6.4-8.9,16.1-15.5,23.9-26.1,23.9s-12-5.8-12.7-12.8c-4,4.5-9.9,10.2-16.2,10.2s-12.7-5.3-12.7-13.8,7.4-23.5,13.6-31.6c4.3-5.6,10.3-9.5,17.8-9.5s10.6,2.5,12.2,6.1c1.4-1.2,3.9-3.4,7.8-3.1s5.8,2.3,4.7,8.1c-.9,4.4-2.5,8.5-5.1,16.1-2.2,6.6-3.9,16-.5,16s9.5-11.2,11.2-13.7c1.1-1.6,2.4-2.3,3.6-2.3h0ZM299.7,54.8c-3,0-6.2,3-10.6,11.7-5.2,10.6-6,17-3.6,17s7.6-4.6,12.3-13.7c4.7-8.8,4.8-15.1,2-15.1h0Z"/>
    <path class="st0" d="M324.5,85.7c.8-14,4.9-28.4,10.2-37,4.5-7.2,9-9.6,13.2-9,4.2.7,5.6,3,4.7,8.1-.9,4.4-2.7,8.5-5.1,16.1-2.7,8.2-5.7,20.1-4.7,30.5,0,0-19.7,17.6-18.2-8.7h-.1ZM356.8,10c6.6,1.3,8.3,6.7,6.8,11.2-1.7,5.6-10.2,14.5-14.1,13.8-3.7-.6-6.5-12.1-5.2-17.4,1.3-5.3,5.8-9,12.5-7.6h0Z"/>
  </g>
</svg>